# xmcd
#
# Track frame offsets:
# 150
# 5118
# 77088
# 124576
# 168961
# 203745
# 223794
# 274541
#
# Disc length: 4280 seconds
#
# Revision: 0
# Processed by: cddbd v1.4PL0 Copyright (c) Steve Scherf et al.
# Submitted via: Audion 3.0.2 (http://www.panic.com/audion/)
#
DISCID=6810b608
DTITLE=Bioneers - Weaving the World
DYEAR=1900
DGENRE=
TTITLE0=Intro
TTITLE1=Paul Hawken
TTITLE2=Aqeela Sherrills
TTITLE3=Bogaletch Gebre
TTITLE4=Sylvia Earle
TTITLE5=Jeannette Armstrong
TTITLE6=Greg Watson
TTITLE7=John Todd
EXTD=
EXTT0=
EXTT1=
EXTT2=
EXTT3=
EXTT4=
EXTT5=
EXTT6=
EXTT7=
PLAYORDER=
